<?xml version="1.0" encoding="utf-8"?>
<?xml-stylesheet type="text/xsl" href="rss1.xsl"?>
<rss version="2.0" xmlns:atom="http://www.w3.org/2005/Atom" xmlns:content="http://purl.org/rss/1.0/modules/content/" xmlns:dc="http://purl.org/dc/elements/1.1/" xmlns:media="http://search.yahoo.com/mrss/">
<channel>
 <title>Getty</title>
 <link>http://www.gettyimg.com/</link>
 <atom:link href="http://www.gettyimg.com/" rel="self" type="application/rss+xml" />

 
                <item>
                <title><![CDATA[【HD Live Performances】WEB-DL - The 2023 Rock &amp; Roll Hall of Fame Induction Ceremony WEB-DL H264 720p DD5.1-ilya2129]]></title>
                <link><![CDATA[https://sharemania.us/threads/the-2023-rock-roll-hall-of-fame-induction-ceremony-web-dl-h264-720p-dd5-1-ilya2129.232878/]]></link>
                <description><![CDATA[<article>
<blockquote class="messageText SelectQuoteContainer ugc baseHtml">
<div style="text-align: center"><img src="https://i122.fastpic.org/big/2023/1127/22/797223490d1089f7bfc1f31c1e1f9d22.png" class="bbCodeImage LbImage" alt="[​IMG]" data-url="https://i122.fastpic.org/big/2023/1127/22/797223490d1089f7bfc1f31c1e1f9d22.png" style=""><br>
<br>
<a href="https://postimg.cc/bdpj4NYt" target="_blank" class="externalLink" rel="nofollow"><img src="https://i.postimg.cc/bdpj4NYt/vlcsnap-2023-11-27-00h39m14s682.png" class="bbCodeImage LbImage" alt="[​IMG]" data-url="https://i.postimg.cc/bdpj4NYt/vlcsnap-2023-11-27-00h39m14s682.png"></a> <a href="https://postimg.cc/XrTRLnDX" target="_blank" class="externalLink" rel="nofollow"><img src="https://i.postimg.cc/XrTRLnDX/vlcsnap-2023-11-27-00h39m19s004.png" class="bbCodeImage LbImage" alt="[​IMG]" data-url="https://i.postimg.cc/XrTRLnDX/vlcsnap-2023-11-27-00h39m19s004.png"></a> <a href="https://postimg.cc/682sC8cD" target="_blank" class="externalLink" rel="nofollow"><img src="https://i.postimg.cc/682sC8cD/vlcsnap-2023-11-27-00h39m23s529.png" class="bbCodeImage LbImage" alt="[​IMG]" data-url="https://i.postimg.cc/682sC8cD/vlcsnap-2023-11-27-00h39m23s529.png"></a> <a href="https://postimg.cc/Cz6TZGGG" target="_blank" class="externalLink" rel="nofollow"><img src="https://i.postimg.cc/Cz6TZGGG/vlcsnap-2023-11-27-00h39m27s199.png" class="bbCodeImage LbImage" alt="[​IMG]" data-url="https://i.postimg.cc/Cz6TZGGG/vlcsnap-2023-11-27-00h39m27s199.png"></a> <a href="https://postimg.cc/CZkW69W7" target="_blank" class="externalLink" rel="nofollow"><img src="https://i.postimg.cc/CZkW69W7/vlcsnap-2023-11-27-00h39m28s746.png" class="bbCodeImage LbImage" alt="[​IMG]" data-url="https://i.postimg.cc/CZkW69W7/vlcsnap-2023-11-27-00h39m28s746.png"></a> <a href="https://postimg.cc/PpM0dYf8" target="_blank" class="externalLink" rel="nofollow"><img src="https://i.postimg.cc/PpM0dYf8/vlcsnap-2023-11-27-00h39m30s516.png" class="bbCodeImage LbImage" alt="[​IMG]" data-url="https://i.postimg.cc/PpM0dYf8/vlcsnap-2023-11-27-00h39m30s516.png"></a> <a href="https://postimg.cc/62KDsYKX" target="_blank" class="externalLink" rel="nofollow"><img src="https://i.postimg.cc/62KDsYKX/vlcsnap-2023-11-27-00h39m32s430.png" class="bbCodeImage LbImage" alt="[​IMG]" data-url="https://i.postimg.cc/62KDsYKX/vlcsnap-2023-11-27-00h39m32s430.png"></a> <br>
<br>
Inductees Sheryl Crow, Missy Elliott, Chaka Khan, and Willie Nelson are expected to perform. Special guests scheduled to perform include Elton John (a 1994 Rock Hall inductee), Brandi Carlile, Dave Matthews, H.E.R., Chris Stapleton, St. Vincent, New Edition. Additional performers and guests include Stevie Nicks, Adam Levine, Carrie Underwood, Common, Ice-T, LL COOL J, Miguel, Olivia Rodrigo, Queen Latifah, Sia and St. Vincent.<br>
​</div>
<div class="bbCodeBlock bbCodeCode">
<div class="type">Code:</div>
<pre>General
Unique ID                                : 110178610568087332192158006256292005516 (0x52E3A0E77FEFF7CA99BA77199413068C)
Complete name                            : D:\The 2023 Rock &amp; Roll Hall of Fame Induction Ceremony WEB-DL H264 720p DD5.1-ilya2129.mkv
Format                                   : Matroska
Format version                           : Version 4
File size                                : 7.25 GiB
Duration                                 : 4 h 22 min
Overall bit rate mode                    : Variable
Overall bit rate                         : 3 957 kb/s
Frame rate                               : 23.976 FPS
Encoded date                             : 2023-11-26 21:25:27 UTC
Writing application                      : mkvmerge v72.0.0 ('Minuano (Six-eight)') 64-bit
Writing library                          : libebml v1.4.4 + libmatroska v1.7.1

Video
ID                                       : 1
Format                                   : AVC
Format/Info                              : Advanced Video Codec
Format profile                           : High@L3.1
Format settings                          : CABAC / 4 Ref Frames
Format settings, CABAC                   : Yes
Format settings, Reference frames        : 4 frames
Codec ID                                 : V_MPEG4/ISO/AVC
Duration                                 : 4 h 22 min
Bit rate mode                            : Variable
Bit rate                                 : 3 699 kb/s
Maximum bit rate                         : 6 375 kb/s
Width                                    : 1 280 pixels
Height                                   : 720 pixels
Display aspect ratio                     : 16:9
Frame rate mode                          : Constant
Frame rate                               : 23.976 (24000/1001) FPS
Color space                              : YUV
Chroma subsampling                       : 4:2:0
Bit depth                                : 8 bits
Scan type                                : Progressive
Bits/(Pixel*Frame)                       : 0.167
Time code of first frame                 : 00:00:00:0000000000
Stream size                              : 6.78 GiB (93%)
Default                                  : Yes
Forced                                   : No
Color range                              : Limited
Color primaries                          : BT.709
Transfer characteristics                 : BT.709
Matrix coefficients                      : BT.709

Audio
ID                                       : 2
Format                                   : E-AC-3
Format/Info                              : Enhanced AC-3
Commercial name                          : Dolby Digital Plus
Codec ID                                 : A_EAC3
Duration                                 : 4 h 22 min
Bit rate mode                            : Constant
Bit rate                                 : 256 kb/s
Channel(s)                               : 6 channels
Channel layout                           : L R C LFE Ls Rs
Sampling rate                            : 48.0 kHz
Frame rate                               : 31.250 FPS (1536 SPF)
Compression mode                         : Lossy
Stream size                              : 480 MiB (6%)
Language                                 : English
Service kind                             : Complete Main
Default                                  : Yes
Forced                                   : No
</pre>
</div><div style="text-align: center"><br>
<div class="bbCodeBlock bbCodeVfcHH HiddenContent">
<div class="attribution type">Hidden Content:</div>
<blockquote>You must reply before you can see the hidden data contained here.</blockquote>
</div></div>
<div class="messageTextEndMarker">&nbsp;</div>
</blockquote>
</article>]]></description>
                <author><![CDATA[ilya2129]]></author>
                </item>

                
                <item>
                <title><![CDATA[【Singles (lossy)】Dolby Atmos - Laura Pausini - From The Inside (Dolby Atmos) [E-AC3-JOC 5.1 768kbits 48kHz]]]></title>
                <link><![CDATA[https://sharemania.us/threads/laura-pausini-from-the-inside-dolby-atmos-e-ac3-joc-5-1-768kbits-48khz.232879/]]></link>
                <description><![CDATA[<article>
<blockquote class="messageText SelectQuoteContainer ugc baseHtml">
thank you!!
<div class="messageTextEndMarker">&nbsp;</div>
</blockquote>
</article>]]></description>
                <author><![CDATA[msc93]]></author>
                </item>

                
                <item>
                <title><![CDATA[【Albums (lossy)】Dolby Atmos - Laura Pausini - 20: Grandes Exitos (Dolby Atmos) [E-AC3-JOC 5.1 768kbits 48kHz]]]></title>
                <link><![CDATA[https://sharemania.us/threads/laura-pausini-20-grandes-exitos-dolby-atmos-e-ac3-joc-5-1-768kbits-48khz.232880/]]></link>
                <description><![CDATA[<article>
<blockquote class="messageText SelectQuoteContainer ugc baseHtml">
Thanks<img src="styles/default/xenforo/smilies/big_smile-48.png" class="mceSmilie" alt=":)" title="Smile    :)">
<div class="messageTextEndMarker">&nbsp;</div>
</blockquote>
</article>]]></description>
                <author><![CDATA[msc93]]></author>
                </item>

                </channel></rss>